<svg width="256" height="42" viewBox="0 0 256 42" fill="none" xmlns="http://www.w3.org/2000/svg">
<mask id="path-1-inside-1_1_192" fill="white">
<path d="M0 8C0 3.58172 3.58172 0 8 0H247.33C251.748 0 255.33 3.58172 255.33 8V34C255.33 38.4183 251.748 42 247.33 42H8C3.58173 42 0 38.4183 0 34V8Z"/>
</mask>
<path d="M0 8C0 3.58172 3.58172 0 8 0H247.33C251.748 0 255.33 3.58172 255.33 8V34C255.33 38.4183 251.748 42 247.33 42H8C3.58173 42 0 38.4183 0 34V8Z" fill="#2C2C2C"/>
<path d="M8 1H247.33V-1H8V1ZM254.33 8V34H256.33V8H254.33ZM247.33 41H8V43H247.33V41ZM1 34V8H-1V34H1ZM8 41C4.13401 41 1 37.866 1 34H-1C-1 38.9706 3.02944 43 8 43V41ZM254.33 34C254.33 37.866 251.196 41 247.33 41V43C252.301 43 256.33 38.9706 256.33 34H254.33ZM247.33 1C251.196 1 254.33 4.13401 254.33 8H256.33C256.33 3.02944 252.301 -1 247.33 -1V1ZM8 -1C3.02944 -1 -1 3.02944 -1 8H1C1 4.13401 4.13401 1 8 1V-1Z" fill="#2C2C2C" mask="url(#path-1-inside-1_1_192)"/>
<path d="M103.573 27V15.3636H107.641C108.452 15.3636 109.121 15.5038 109.647 15.7841C110.174 16.0606 110.566 16.4337 110.823 16.9034C111.081 17.3693 111.21 17.8864 111.21 18.4545C111.21 18.9545 111.121 19.3674 110.942 19.6932C110.768 20.0189 110.537 20.2765 110.249 20.4659C109.965 20.6553 109.656 20.7955 109.323 20.8864V21C109.679 21.0227 110.037 21.1477 110.397 21.375C110.757 21.6023 111.058 21.928 111.3 22.3523C111.543 22.7765 111.664 23.2955 111.664 23.9091C111.664 24.4924 111.531 25.017 111.266 25.483C111.001 25.9489 110.583 26.3182 110.011 26.5909C109.439 26.8636 108.694 27 107.778 27H103.573ZM104.982 25.75H107.778C108.698 25.75 109.352 25.572 109.738 25.2159C110.128 24.8561 110.323 24.4205 110.323 23.9091C110.323 23.5152 110.223 23.1515 110.022 22.8182C109.821 22.4811 109.535 22.2121 109.164 22.0114C108.793 21.8068 108.353 21.7045 107.846 21.7045H104.982V25.75ZM104.982 20.4773H107.596C108.02 20.4773 108.403 20.3939 108.744 20.2273C109.088 20.0606 109.361 19.8258 109.562 19.5227C109.766 19.2197 109.869 18.8636 109.869 18.4545C109.869 17.9432 109.691 17.5095 109.335 17.1534C108.978 16.7936 108.414 16.6136 107.641 16.6136H104.982V20.4773ZM119.298 23.4318V18.2727H120.638V27H119.298V25.5227H119.207C119.002 25.9659 118.684 26.3428 118.252 26.6534C117.82 26.9602 117.275 27.1136 116.616 27.1136C116.07 27.1136 115.585 26.9943 115.161 26.7557C114.737 26.5133 114.404 26.1496 114.161 25.6648C113.919 25.1761 113.798 24.5606 113.798 23.8182V18.2727H115.138V23.7273C115.138 24.3636 115.317 24.8712 115.673 25.25C116.032 25.6288 116.491 25.8182 117.048 25.8182C117.381 25.8182 117.72 25.733 118.065 25.5625C118.413 25.392 118.705 25.1307 118.94 24.7784C119.178 24.4261 119.298 23.9773 119.298 23.4318ZM126.89 18.2727V19.4091H122.367V18.2727H126.89ZM123.685 16.1818H125.026V24.5C125.026 24.8788 125.081 25.1629 125.191 25.3523C125.305 25.5379 125.449 25.6629 125.623 25.7273C125.801 25.7879 125.988 25.8182 126.185 25.8182C126.333 25.8182 126.454 25.8106 126.549 25.7955C126.644 25.7765 126.719 25.7614 126.776 25.75L127.049 26.9545C126.958 26.9886 126.831 27.0227 126.668 27.0568C126.505 27.0947 126.299 27.1136 126.049 27.1136C125.67 27.1136 125.299 27.0322 124.935 26.8693C124.576 26.7064 124.276 26.4583 124.038 26.125C123.803 25.7917 123.685 25.3712 123.685 24.8636V16.1818ZM132.702 18.2727V19.4091H128.18V18.2727H132.702ZM129.498 16.1818H130.839V24.5C130.839 24.8788 130.894 25.1629 131.004 25.3523C131.117 25.5379 131.261 25.6629 131.435 25.7273C131.613 25.7879 131.801 25.8182 131.998 25.8182C132.146 25.8182 132.267 25.8106 132.362 25.7955C132.456 25.7765 132.532 25.7614 132.589 25.75L132.862 26.9545C132.771 26.9886 132.644 27.0227 132.481 27.0568C132.318 27.0947 132.112 27.1136 131.862 27.1136C131.483 27.1136 131.112 27.0322 130.748 26.8693C130.388 26.7064 130.089 26.4583 129.85 26.125C129.615 25.7917 129.498 25.3712 129.498 24.8636V16.1818ZM138.171 27.1818C137.383 27.1818 136.692 26.9943 136.097 26.6193C135.506 26.2443 135.044 25.7197 134.711 25.0455C134.381 24.3712 134.217 23.5833 134.217 22.6818C134.217 21.7727 134.381 20.9792 134.711 20.3011C135.044 19.6231 135.506 19.0966 136.097 18.7216C136.692 18.3466 137.383 18.1591 138.171 18.1591C138.959 18.1591 139.648 18.3466 140.239 18.7216C140.834 19.0966 141.296 19.6231 141.626 20.3011C141.959 20.9792 142.126 21.7727 142.126 22.6818C142.126 23.5833 141.959 24.3712 141.626 25.0455C141.296 25.7197 140.834 26.2443 140.239 26.6193C139.648 26.9943 138.959 27.1818 138.171 27.1818ZM138.171 25.9773C138.77 25.9773 139.262 25.8239 139.648 25.517C140.035 25.2102 140.321 24.8068 140.506 24.3068C140.692 23.8068 140.785 23.2652 140.785 22.6818C140.785 22.0985 140.692 21.5549 140.506 21.0511C140.321 20.5473 140.035 20.1402 139.648 19.8295C139.262 19.5189 138.77 19.3636 138.171 19.3636C137.573 19.3636 137.08 19.5189 136.694 19.8295C136.308 20.1402 136.022 20.5473 135.836 21.0511C135.65 21.5549 135.558 22.0985 135.558 22.6818C135.558 23.2652 135.65 23.8068 135.836 24.3068C136.022 24.8068 136.308 25.2102 136.694 25.517C137.08 25.8239 137.573 25.9773 138.171 25.9773ZM145.513 21.75V27H144.173V18.2727H145.468V19.6364H145.582C145.786 19.1932 146.097 18.8371 146.513 18.5682C146.93 18.2955 147.468 18.1591 148.127 18.1591C148.718 18.1591 149.235 18.2803 149.678 18.5227C150.121 18.7614 150.466 19.125 150.712 19.6136C150.959 20.0985 151.082 20.7121 151.082 21.4545V27H149.741V21.5455C149.741 20.8598 149.563 20.3258 149.207 19.9432C148.851 19.5568 148.362 19.3636 147.741 19.3636C147.313 19.3636 146.93 19.4564 146.593 19.642C146.26 19.8277 145.996 20.0985 145.803 20.4545C145.61 20.8106 145.513 21.2424 145.513 21.75Z" fill="#F5F5F5"/>
</svg>

